<svg width="191" height="41" viewBox="0 0 191 41" fill="none" xmlns="http://www.w3.org/2000/svg">
<g clip-path="url(#clip0_193713_58823)">
<path d="M44.7148 29.2503H46.9485V12.1428H44.7148V29.2503ZM61.9721 12.1182V25.7159L52.9889 12.1182H50.7552V29.2503H52.9889V15.6281L61.9721 29.2503H64.2058V12.1182H61.9721ZM79.1319 24.5869C79.1319 18.2544 69.9031 21.0034 69.9031 16.5854C69.9031 14.7445 71.3513 13.7873 73.1921 13.8363C75.2783 13.8609 76.3584 15.1618 76.5056 16.3154H78.96C78.6902 13.7136 76.5547 11.9219 73.2903 11.9219C69.9031 11.9219 67.6205 13.8363 67.6205 16.659C67.6205 23.0161 76.8738 20.0707 76.8738 24.6851C76.8738 26.305 75.5974 27.5323 73.4375 27.5323C71.0566 27.5323 70.0505 26.1087 69.9031 24.6851H67.5224C67.5715 27.5076 70.0014 29.4222 73.4375 29.4222C77.1438 29.4222 79.1319 27.0169 79.1319 24.5869ZM81.3633 13.9591H86.0514V29.2503H88.285V13.9591H92.9484V12.1428H81.3633V13.9591ZM107.185 29.2503H109.541L103.38 12.2409H100.803L94.6178 29.2503H96.9743L98.3488 25.4461H105.81L107.185 29.2503ZM105.172 23.6297H98.9868L102.08 14.9899L105.172 23.6297ZM111.402 20.6843C111.402 25.8142 115.158 29.3978 119.944 29.3978C123.65 29.3978 126.595 27.5569 127.872 24.2679H125.196C124.264 26.305 122.447 27.4586 119.944 27.4586C116.36 27.4586 113.685 24.857 113.685 20.6843C113.685 16.4872 116.36 13.8854 119.944 13.8854C122.447 13.8854 124.264 15.039 125.196 17.1008H127.872C126.595 13.7873 123.65 11.9219 119.944 11.9219C115.158 11.9219 111.402 15.5545 111.402 20.6843ZM131.197 12.1428V29.2503H139.419V27.4341H133.43V12.1428H131.197ZM153.278 29.2503H155.634L149.474 12.2409H146.896L140.711 29.2503H143.067L144.442 25.4461H151.903L153.278 29.2503ZM151.265 23.6297H145.08L148.173 14.9899L151.265 23.6297ZM158.281 22.9424C158.281 27.3851 161.177 29.4222 164.712 29.4222C168.246 29.4222 171.167 27.3851 171.167 22.9424V12.1428H168.933V22.967C168.933 26.1087 167.264 27.4586 164.736 27.4586C162.208 27.4586 160.514 26.1087 160.514 22.967V12.1428H158.281V22.9424ZM186.012 24.5869C186.012 18.2544 176.783 21.0034 176.783 16.5854C176.783 14.7445 178.231 13.7873 180.072 13.8363C182.158 13.8609 183.238 15.1618 183.385 16.3154H185.84C185.57 13.7136 183.434 11.9219 180.17 11.9219C176.783 11.9219 174.5 13.8363 174.5 16.659C174.5 23.0161 183.753 20.0707 183.753 24.6851C183.753 26.305 182.477 27.5323 180.317 27.5323C177.936 27.5323 176.93 26.1087 176.783 24.6851H174.402C174.451 27.5076 176.881 29.4222 180.317 29.4222C184.023 29.4222 186.012 27.0169 186.012 24.5869Z" fill="#686868"/>
<path d="M12.7547 0.921875H8.13268H0.3125V9.58009H8.13268H12.7547H16.7954V0.921875H12.7547Z" fill="#1B686A"/>
<path d="M30.1198 0.921875H21.457V9.58009H30.1198V0.921875Z" fill="#DFC188"/>
<path d="M0.3125 14.2422H8.97827V20.7759C8.97827 25.2108 11.0575 27.7715 15.1692 27.7715C19.2808 27.7715 21.4567 25.2045 21.4567 20.7759V14.2422H30.1255V20.7245C30.1255 31.089 23.2309 36.2154 15.0257 36.2154C6.76162 36.2154 0.32307 31.089 0.32307 20.7245V14.2422H0.3125Z" fill="#1B686A"/>
</g>
<defs>
<clipPath id="clip0_193713_58823">
<rect width="190.968" height="39.97" fill="white" transform="translate(0.015625 0.921875)"/>
</clipPath>
</defs>
</svg>
